<?xml version='1.0' encoding='utf-8'?>
<svg xmlns:xlink="http://www.w3.org/1999/xlink" xmlns="http://www.w3.org/2000/svg" x="7670pt" y="-460pt" width="1600pt" height="1000pt" viewBox="7670 -460 1600 1000"> <g id="1"> <title>Layer 1</title> <defs> <title>Smart Rectangle</title> <g id="2"> <defs> <path id="3" d="M9170,469.439 C9170,473.857,9166.42,477.439,9162,477.439 C9162,477.439,7778,477.439,7778,477.439 C7773.58,477.439,7770,473.857,7770,469.439 C7770,469.439,7770,-389.439,7770,-389.439 C7770,-393.857,7773.58,-397.439,7778,-397.439 C7778,-397.439,9162,-397.439,9162,-397.439 C9166.42,-397.439,9170,-393.857,9170,-389.439 C9170,-389.439,9170,469.439,9170,469.439 z"/> </defs> <use xlink:href="#3" style="fill:none;opacity:1;stroke:#001939;stroke-linecap:round;stroke-linejoin:round;stroke-miterlimit:10;stroke-opacity:1;stroke-width:40;"/> </g> </defs> <use xlink:href="#2"/> <g id="4"> <title>Group</title> <g id="5"> <title>Group</title> <defs> <title>Smart Rectangle</title> <g id="6"> <defs> <path id="7" d="M9070.42,-15.3433 C9070.42,-13.1341,9068.63,-11.3433,9066.42,-11.3433 C9066.42,-11.3433,8454.42,-11.3433,8454.42,-11.3433 C8452.21,-11.3433,8450.42,-13.1341,8450.42,-15.3433 C8450.42,-15.3433,8450.42,-71.5796,8450.42,-71.5796 C8450.42,-73.7888,8452.21,-75.5796,8454.42,-75.5796 C8454.42,-75.5796,9066.42,-75.5796,9066.42,-75.5796 C9068.63,-75.5796,9070.42,-73.7888,9070.42,-71.5796 C9070.42,-71.5796,9070.42,-15.3433,9070.42,-15.3433 z"/> </defs> <use xlink:href="#7" style="fill:#001939;fill-opacity:1;fill-rule:nonzero;opacity:1;stroke:none;"/> </g> </defs> <use xlink:href="#6"/> <defs> <title>Smart Rectangle</title> <g id="8"> <defs> <path id="9" d="M9010.42,109.029 C9010.42,111.239,9008.63,113.029,9006.42,113.029 C9006.42,113.029,8454.42,113.029,8454.42,113.029 C8452.21,113.029,8450.42,111.239,8450.42,109.029 C8450.42,109.029,8450.42,53.0294,8450.42,53.0294 C8450.42,50.8203,8452.21,49.0294,8454.42,49.0294 C8454.42,49.0294,9006.42,49.0294,9006.42,49.0294 C9008.63,49.0294,9010.42,50.8203,9010.42,53.0294 C9010.42,53.0294,9010.42,109.029,9010.42,109.029 z"/> </defs> <use xlink:href="#9" style="fill:#001939;fill-opacity:1;fill-rule:nonzero;opacity:1;stroke:none;"/> </g> </defs> <use xlink:href="#8"/> <defs> <title>Smart Rectangle</title> <g id="10"> <defs> <path id="11" d="M8950.42,232.359 C8950.42,234.569,8948.63,236.359,8946.42,236.359 C8946.42,236.359,8454.42,236.359,8454.42,236.359 C8452.21,236.359,8450.42,234.569,8450.42,232.359 C8450.42,232.359,8450.42,176.359,8450.42,176.359 C8450.42,174.15,8452.21,172.359,8454.42,172.359 C8454.42,172.359,8946.42,172.359,8946.42,172.359 C8948.63,172.359,8950.42,174.15,8950.42,176.359 C8950.42,176.359,8950.42,232.359,8950.42,232.359 z"/> </defs> <use xlink:href="#11" style="fill:#001939;fill-opacity:1;fill-rule:nonzero;opacity:1;stroke:none;"/> </g> </defs> <use xlink:href="#10"/> <defs> <title>Smart Rectangle</title> <g id="12"> <defs> <path id="13" d="M8890.42,360.04 C8890.42,362.249,8888.63,364.04,8886.42,364.04 C8886.42,364.04,8454.42,364.04,8454.42,364.04 C8452.21,364.04,8450.42,362.249,8450.42,360.04 C8450.42,360.04,8450.42,304.04,8450.42,304.04 C8450.42,301.831,8452.21,300.04,8454.42,300.04 C8454.42,300.04,8886.42,300.04,8886.42,300.04 C8888.63,300.04,8890.42,301.831,8890.42,304.04 C8890.42,304.04,8890.42,360.04,8890.42,360.04 z"/> </defs> <use xlink:href="#13" style="fill:#001939;fill-opacity:1;fill-rule:nonzero;opacity:1;stroke:none;"/> </g> </defs> <use xlink:href="#12"/> </g> <g id="14"> <title>Group</title> <defs> <title>Smart Rectangle</title> <g id="15"> <defs> <path id="16" d="M8365.42,334.14 C8365.42,350.709,8351.99,364.14,8335.42,364.14 C8335.42,364.14,7899.58,364.14,7899.58,364.14 C7883.01,364.14,7869.58,350.709,7869.58,334.14 C7869.58,334.14,7869.58,-45.5796,7869.58,-45.5796 C7869.58,-62.1482,7883.01,-75.5796,7899.58,-75.5796 C7899.58,-75.5796,8335.42,-75.5796,8335.42,-75.5796 C8351.99,-75.5796,8365.42,-62.1482,8365.42,-45.5796 C8365.42,-45.5796,8365.42,334.14,8365.42,334.14 z"/> </defs> <use xlink:href="#16" style="fill:#001939;fill-opacity:1;fill-rule:nonzero;opacity:1;stroke:none;"/> </g> </defs> <use xlink:href="#15"/> <defs> <title>Shape 115</title> <g id="17"> <defs> <path id="18" d="M8108.4,170.358 C8108.4,170.358,8096.74,190.551,8096.74,190.551 C8092.99,197.05,8086.05,201.053,8078.55,201.053 C8071.05,201.053,8064.11,197.05,8060.36,190.551 C8060.36,190.551,8049.83,172.321,8049.83,172.321 C8049.83,172.321,8049.75,172.368,8049.75,172.368 C8049.75,172.368,8036.44,149.32,8036.44,149.32 C8032.31,142.164,8024.67,137.757,8016.41,137.757 C8008.15,137.757,8000.51,142.164,7996.38,149.32 C7996.38,149.32,7930.6,263.262,7930.6,263.262 C7926.47,270.418,7926.47,279.233,7930.6,286.389 C7934.73,293.544,7942.36,297.952,7950.63,297.952 C7950.63,297.952,8082.2,297.952,8082.2,297.952 C8083.55,297.952,8084.89,297.834,8086.19,297.605 C8087.75,297.834,8089.33,297.952,8090.93,297.952 C8090.93,297.952,8275.12,297.952,8275.12,297.952 C8286.69,297.952,8297.38,291.781,8303.16,281.763 C8308.95,271.746,8308.95,259.404,8303.16,249.387 C8303.16,249.387,8211.06,89.8667,8211.06,89.8667 C8205.28,79.8493,8194.59,73.6783,8183.02,73.6783 C8171.46,73.6783,8160.77,79.8493,8154.98,89.8667 C8154.98,89.8667,8108.49,170.39,8108.49,170.39 C8108.49,170.39,8108.4,170.358,8108.4,170.358 z"/> </defs> <use xlink:href="#18" style="fill:#ebf2ff;fill-opacity:1;fill-rule:evenodd;opacity:1;stroke:none;"/> </g> </defs> <use xlink:href="#17"/> <defs> <title>Path</title> <g id="19"> <defs> <path id="20" d="M8018.06,26.5905 C8034.63,26.5905,8048.06,40.022,8048.06,56.5905 C8048.06,73.1591,8034.63,86.5905,8018.06,86.5905 C8001.49,86.5905,7988.06,73.1591,7988.06,56.5905 C7988.06,40.022,8001.49,26.5905,8018.06,26.5905 z"/> </defs> <use xlink:href="#20" style="fill:#ebf2ff;fill-opacity:1;fill-rule:evenodd;opacity:1;stroke:none;"/> </g> </defs> <use xlink:href="#19"/> </g> </g> <g id="21"> <title>Group</title> <defs> <title>Smart Rectangle Copy</title> <g id="22"> <defs> <path id="23" d="M9070.42,-249.14 C9070.42,-227.049,9052.51,-209.14,9030.42,-209.14 C9030.42,-209.14,7909.58,-209.14,7909.58,-209.14 C7887.49,-209.14,7869.58,-227.049,7869.58,-249.14 C7869.58,-249.14,7869.58,-253.14,7869.58,-253.14 C7869.58,-275.232,7887.49,-293.14,7909.58,-293.14 C7909.58,-293.14,9030.42,-293.14,9030.42,-293.14 C9052.51,-293.14,9070.42,-275.232,9070.42,-253.14 C9070.42,-253.14,9070.42,-249.14,9070.42,-249.14 z"/> </defs> <use xlink:href="#23" style="fill:#001838;fill-opacity:1;fill-rule:nonzero;opacity:1;stroke:none;"/> </g> </defs> <use xlink:href="#22"/> <g id="24"> <title>Group</title> <defs> <title> Horseshoe</title> <g id="25"> <defs> <path id="26" d="M8246.56,-250.12 C8246.56,-252.582,8246.56,-255.044,8246.56,-257.507 C8246.56,-260.086,8244.46,-262.19,8241.88,-262.185 C8239.3,-262.19,8237.19,-260.086,8237.2,-257.507 C8237.2,-255.044,8237.2,-252.582,8237.2,-250.12 C8236.21,-250.12,8235.23,-250.12,8234.24,-250.12 C8234.24,-252.582,8234.24,-255.044,8234.24,-257.507 C8234.25,-261.727,8237.66,-265.136,8241.88,-265.14 C8246.1,-265.136,8249.51,-261.727,8249.51,-257.507 C8249.51,-255.044,8249.51,-252.582,8249.51,-250.12 C8248.53,-250.12,8247.54,-250.12,8246.56,-250.12 z"/> </defs> <use xlink:href="#26" style="fill:#6280aa;fill-opacity:1;fill-rule:nonzero;opacity:1;stroke:none;"/> </g> </defs> <use xlink:href="#25"/> <defs> <title>Smart Rectangle</title> <g id="27"> <defs> <path id="28" d="M8253.46,-243.14 C8253.46,-239.827,8250.77,-237.14,8247.46,-237.14 C8247.46,-237.14,8236.29,-237.14,8236.29,-237.14 C8232.98,-237.14,8230.29,-239.827,8230.29,-243.14 C8230.29,-243.14,8230.29,-248.852,8230.29,-248.852 C8230.29,-252.166,8232.98,-254.852,8236.29,-254.852 C8236.29,-254.852,8247.46,-254.852,8247.46,-254.852 C8250.77,-254.852,8253.46,-252.166,8253.46,-248.852 C8253.46,-248.852,8253.46,-243.14,8253.46,-243.14 z"/> </defs> <use xlink:href="#28" style="fill:#ebf2ff;fill-opacity:1;fill-rule:nonzero;opacity:1;stroke:none;"/> </g> </defs> <use xlink:href="#27"/> </g> <defs> <title>Smart Rectangle</title> <g id="29"> <defs> <path id="30" d="M8567.46,-247.14 C8567.46,-241.617,8562.98,-237.14,8557.46,-237.14 C8557.46,-237.14,8277.46,-237.14,8277.46,-237.14 C8271.94,-237.14,8267.46,-241.617,8267.46,-247.14 C8267.46,-247.14,8267.46,-255.14,8267.46,-255.14 C8267.46,-260.663,8271.94,-265.14,8277.46,-265.14 C8277.46,-265.14,8557.46,-265.14,8557.46,-265.14 C8562.98,-265.14,8567.46,-260.663,8567.46,-255.14 C8567.46,-255.14,8567.46,-247.14,8567.46,-247.14 z"/> </defs> <use xlink:href="#30" style="fill:#6280aa;fill-opacity:1;fill-rule:nonzero;opacity:0.28;stroke:none;"/> </g> </defs> <use xlink:href="#29"/> <defs> <title>Smart Rectangle Copy</title> <g id="31"> <defs> <path id="32" d="M8693.46,-247.14 C8693.46,-241.617,8688.98,-237.14,8683.46,-237.14 C8683.46,-237.14,8623.46,-237.14,8623.46,-237.14 C8617.94,-237.14,8613.46,-241.617,8613.46,-247.14 C8613.46,-247.14,8613.46,-255.14,8613.46,-255.14 C8613.46,-260.663,8617.94,-265.14,8623.46,-265.14 C8623.46,-265.14,8683.46,-265.14,8683.46,-265.14 C8688.98,-265.14,8693.46,-260.663,8693.46,-255.14 C8693.46,-255.14,8693.46,-247.14,8693.46,-247.14 z"/> </defs> <use xlink:href="#32" style="fill:#6280aa;fill-opacity:1;fill-rule:nonzero;opacity:0.28;stroke:none;"/> </g> </defs> <use xlink:href="#31"/> <defs> <title>Path</title> <g id="33"> <defs> <path id="34" d="M8590.46,-265.14 C8598.19,-265.14,8604.46,-258.872,8604.46,-251.14 C8604.46,-243.408,8598.19,-237.14,8590.46,-237.14 C8582.73,-237.14,8576.46,-243.408,8576.46,-251.14 C8576.46,-258.872,8582.73,-265.14,8590.46,-265.14 z"/> </defs> <use xlink:href="#34" style="fill:#6280aa;fill-opacity:1;fill-rule:evenodd;opacity:0.28;stroke:none;"/> </g> </defs> <use xlink:href="#33"/> </g> </g> </svg>